<svg width="22" height="16" viewBox="0 0 22 16" fill="none" xmlns="http://www.w3.org/2000/svg">
<path d="M21.6666 13.1067C21.6686 13.3689 21.5972 13.6265 21.4606 13.8503C21.3239 14.0741 21.1274 14.2553 20.8933 14.3733C20.6713 14.4925 20.4201 14.5464 20.1688 14.5287C19.9175 14.511 19.6763 14.4225 19.4733 14.2733L16.3333 12.2667V14.6667C16.3333 15.0203 16.1928 15.3594 15.9427 15.6095C15.6927 15.8595 15.3535 16 14.9999 16L2.99992 16C2.29267 16 1.6144 15.719 1.1143 15.219C0.614204 14.7189 0.333252 14.0406 0.333252 13.3333L0.333252 2.66667C0.333252 1.95942 0.614204 1.28115 1.1143 0.781049C1.6144 0.280951 2.29267 0 2.99992 0L14.9999 0C15.3535 0 15.6927 0.140475 15.9427 0.390524C16.1928 0.640573 16.3333 0.979711 16.3333 1.33333L16.3333 3.73333L19.4266 1.73333C19.6335 1.57488 19.8811 1.47826 20.1406 1.45466C20.4002 1.43107 20.6611 1.48146 20.8933 1.6C21.1315 1.72004 21.3308 1.90538 21.4677 2.13438C21.6046 2.36338 21.6736 2.62661 21.6666 2.89333V13.1067ZM20.2866 2.82C20.2466 2.82 20.2133 2.82 20.1599 2.86L14.9999 6.15333V1.33333L2.99992 1.33333C2.6463 1.33333 2.30716 1.47381 2.05711 1.72386C1.80706 1.97391 1.66659 2.31304 1.66659 2.66667L1.66659 13.3333C1.66659 13.687 1.80706 14.0261 2.05711 14.2761C2.30716 14.5262 2.6463 14.6667 2.99992 14.6667L14.9999 14.6667V9.84667L20.1999 13.18C20.2125 13.1892 20.2277 13.1942 20.2433 13.1942C20.2588 13.1942 20.274 13.1892 20.2866 13.18C20.3012 13.1743 20.3136 13.1642 20.322 13.151C20.3304 13.1378 20.3343 13.1223 20.3333 13.1067V2.89333C20.3343 2.87773 20.3304 2.8622 20.322 2.84901C20.3136 2.83581 20.3012 2.82565 20.2866 2.82Z" fill="white"/>
</svg>
