<svg width="20" height="11" viewBox="0 0 20 11" fill="none" xmlns="http://www.w3.org/2000/svg">
<path d="M0.990037 10.62C0.873629 10.5039 0.781272 10.366 0.718256 10.2141C0.65524 10.0622 0.622803 9.89942 0.622803 9.735C0.622803 9.57058 0.65524 9.40778 0.718256 9.25592C0.781272 9.10406 0.873629 8.96612 0.990037 8.85L9.30004 0.540003C9.39255 0.447299 9.50244 0.373752 9.62341 0.32357C9.74439 0.273389 9.87407 0.247559 10.005 0.247559C10.136 0.247559 10.2657 0.273389 10.3867 0.32357C10.5076 0.373752 10.6175 0.447299 10.71 0.540003L19.02 8.85C19.51 9.34 19.51 10.13 19.02 10.62C18.53 11.11 17.74 11.11 17.25 10.62L10 3.38L2.75004 10.63C2.27004 11.11 1.47004 11.11 0.990037 10.62Z" fill="white"/>
</svg>
