<svg width="21" height="20" viewBox="0 0 21 20" fill="none" xmlns="http://www.w3.org/2000/svg">
<path d="M1.2652 19.5388L19.6912 10.4596C19.7917 10.4101 19.8763 10.3334 19.9355 10.2383C19.9946 10.1432 20.026 10.0334 20.026 9.9214C20.026 9.80939 19.9946 9.69961 19.9355 9.60449C19.8763 9.50937 19.7917 9.43272 19.6912 9.3832L1.264 0.304001C1.16077 0.253288 1.04513 0.233316 0.930868 0.246464C0.816604 0.259609 0.708527 0.305325 0.619509 0.378157C0.53049 0.450991 0.464281 0.547874 0.428768 0.657272C0.393255 0.76667 0.389934 0.883972 0.4192 0.995203L2.782 9.916L0.418 18.8464C0.388249 18.9579 0.391262 19.0755 0.426679 19.1853C0.462096 19.2951 0.528415 19.3924 0.617691 19.4655C0.706966 19.5385 0.815414 19.5843 0.930043 19.5973C1.04467 19.6103 1.16062 19.59 1.264 19.5388H1.2652ZM1.9168 17.8792L3.8488 10.5808L3.9232 10.5952L4 10.6L12.4 10.6C12.5499 10.6003 12.6945 10.5444 12.8053 10.4434C12.9161 10.3424 12.9851 10.2035 12.9987 10.0542C13.0122 9.90489 12.9693 9.75591 12.8785 9.63661C12.7877 9.5173 12.6555 9.43632 12.508 9.4096L12.4 9.4L4 9.4C3.96298 9.39983 3.92603 9.40304 3.8896 9.4096L1.918 1.9624L18.0676 9.9208L1.9168 17.8792Z" fill="#0E1C26"/>
</svg>
