<svg width="18" height="16" viewBox="0 0 18 16" fill="none" xmlns="http://www.w3.org/2000/svg">
<path d="M18 5.057V12.5C18 13.2956 17.6839 14.0587 17.1213 14.6213C16.5587 15.1839 15.7956 15.5 15 15.5H3C2.20435 15.5 1.44129 15.1839 0.878681 14.6213C0.316071 14.0587 0 13.2956 0 12.5V3.5C0 2.70435 0.316071 1.94129 0.878681 1.37868C1.44129 0.81607 2.20435 0.5 3 0.5L15 0.5C15.7956 0.5 16.5587 0.81607 17.1213 1.37868C17.6839 1.94129 18 2.70435 18 3.5V5.057ZM15 2L3 2C2.60218 2 2.22064 2.15804 1.93934 2.43934C1.65804 2.72064 1.5 3.10218 1.5 3.5V4.61L9 8.648L16.5 4.61V3.5C16.5 3.10218 16.342 2.72064 16.0607 2.43934C15.7794 2.15804 15.3978 2 15 2ZM16.5 6.314L9.3555 10.16C9.24624 10.2188 9.12409 10.2496 9 10.2496C8.87591 10.2496 8.75376 10.2188 8.6445 10.16L1.5 6.314V12.5C1.5 12.8978 1.65804 13.2794 1.93934 13.5607C2.22064 13.842 2.60218 14 3 14H15C15.3978 14 15.7794 13.842 16.0607 13.5607C16.342 13.2794 16.5 12.8978 16.5 12.5V6.314Z" fill="#0E1C26"/>
</svg>
