<svg width="24" height="20" viewBox="0 0 24 20" fill="none" xmlns="http://www.w3.org/2000/svg">
<path d="M23.25 6.32125V15.625C23.25 16.6196 22.8549 17.5734 22.1517 18.2766C21.4484 18.9799 20.4946 19.375 19.5 19.375H4.5C3.50544 19.375 2.55161 18.9799 1.84835 18.2766C1.14509 17.5734 0.75 16.6196 0.75 15.625V4.375C0.75 3.38044 1.14509 2.42661 1.84835 1.72335C2.55161 1.02009 3.50544 0.625 4.5 0.625L19.5 0.625C20.4946 0.625 21.4484 1.02009 22.1517 1.72335C22.8549 2.42661 23.25 3.38044 23.25 4.375V6.32125ZM19.5 2.5L4.5 2.5C4.00272 2.5 3.52581 2.69754 3.17418 3.04918C2.82254 3.40081 2.625 3.87772 2.625 4.375V5.7625L12 10.81L21.375 5.7625V4.375C21.375 3.87772 21.1775 3.40081 20.8258 3.04918C20.4742 2.69754 19.9973 2.5 19.5 2.5ZM21.375 7.8925L12.4444 12.7C12.3078 12.7735 12.1551 12.812 12 12.812C11.8449 12.812 11.6922 12.7735 11.5556 12.7L2.625 7.8925V15.625C2.625 16.1223 2.82254 16.5992 3.17418 16.9508C3.52581 17.3025 4.00272 17.5 4.5 17.5H19.5C19.9973 17.5 20.4742 17.3025 20.8258 16.9508C21.1775 16.5992 21.375 16.1223 21.375 15.625V7.8925Z" fill="white"/>
</svg>
